<svg
  width="64"
  height="64"
  viewBox="0 0 64 64"
  fill="none"
  xmlns="http://www.w3.org/2000/svg"
>
  <path
    d="M32 58C20.5 58 12 50.2 12 39.6C12 31.2 17.2 25.1 21.3 20.1C24.5 16.2 27 12.8 27 8C34.8 12.1 39.8 18.5 40.5 26.5C43.2 24.2 44.8 21.2 45.3 17.7C51.1 23.3 55 31.1 55 39.7C55 50.4 46.4 58 32 58Z"
    fill="#FF3B30"
  />
  <path
    d="M33 58C25.2 58 19.5 52.9 19.5 45.9C19.5 40.2 23.2 36.1 26.1 32.6C28.4 29.8 30.2 27.4 30.2 24.1C36.1 27.6 39.5 32.4 39.7 38.3C41.7 36.9 43 34.9 43.6 32.4C47.2 36.3 49.5 41 49.5 46C49.5 53 43.7 58 33 58Z"
    fill="#FFB000"
  />
  <path
    d="M32.5 58C27.6 58 24 54.7 24 50.2C24 46.4 26.4 43.8 28.4 41.5C30 39.7 31.2 38.1 31.2 36C35.3 38.6 37.5 42 37.3 46C38.8 45 39.8 43.6 40.2 41.9C42.5 44.5 44 47.7 44 50.6C44 55 40.1 58 32.5 58Z"
    fill="#FFE75A"
  />
</svg>
