<svg xmlns="http://www.w3.org/2000/svg" viewBox="0 0 24 24" fill="none">
  <path d="M3 12C4.8 8.8 8.1 6.5 12 6.5C15.9 6.5 19.2 8.8 21 12C20.3 13.2 19.4 14.3 18.3 15.1" stroke="#9CA3AF" stroke-width="2" stroke-linecap="round" stroke-linejoin="round"/>
  <path d="M14.1 14.1C13.5 14.7 12.8 15 12 15C10.3 15 9 13.7 9 12C9 11.2 9.3 10.5 9.9 9.9" stroke="#9CA3AF" stroke-width="2" stroke-linecap="round" stroke-linejoin="round"/>
  <path d="M6.2 6.2L17.8 17.8" stroke="#9CA3AF" stroke-width="2" stroke-linecap="round" stroke-linejoin="round"/>
  <path d="M9.6 5.2C10.4 5 11.2 4.9 12 4.9C16.5 4.9 20.3 7.8 22 12C21.5 13.2 20.8 14.3 19.9 15.2" stroke="#9CA3AF" stroke-width="2" stroke-linecap="round" stroke-linejoin="round"/>
  <path d="M14.8 18.3C13.9 18.6 13 18.8 12 18.8C7.5 18.8 3.7 15.9 2 11.7C2.8 9.9 4 8.3 5.5 7.1" stroke="#9CA3AF" stroke-width="2" stroke-linecap="round" stroke-linejoin="round"/>
</svg>
