<svg
  width="28"
  height="28"
  viewBox="0 0 28 28"
  fill="none"
  xmlns="http://www.w3.org/2000/svg"
>
  <path
    d="M11.64 3.5h4.72l.55 3.04c.52.2 1.02.49 1.47.85l2.93-1.02 2.36 4.09-2.37 1.98c.04.29.06.58.06.88s-.02.59-.06.88l2.37 1.98-2.36 4.09-2.93-1.02c-.45.36-.95.65-1.47.85l-.55 3.04h-4.72l-.55-3.04a7.18 7.18 0 0 1-1.47-.85l-2.93 1.02-2.36-4.09 2.37-1.98a6.5 6.5 0 0 1 0-1.76l-2.37-1.98 2.36-4.09 2.93 1.02c.45-.36.95-.65 1.47-.85l.55-3.04Z"
    stroke="currentColor"
    stroke-width="2"
    stroke-linejoin="round"
  />
  <circle cx="14" cy="14" r="3.6" stroke="currentColor" stroke-width="2" />
</svg>
