<svg
  width="28"
  height="28"
  viewBox="0 0 28 28"
  fill="none"
  xmlns="http://www.w3.org/2000/svg"
>
  <path
    d="M12.1 3.5H15.9L16.4 6.1C16.9 6.3 17.4 6.5 17.9 6.8L20.4 5.6L22.4 7.6L21.2 10.1C21.5 10.6 21.7 11.1 21.9 11.6L24.5 12.1V15.9L21.9 16.4C21.7 16.9 21.5 17.4 21.2 17.9L22.4 20.4L20.4 22.4L17.9 21.2C17.4 21.5 16.9 21.7 16.4 21.9L15.9 24.5H12.1L11.6 21.9C11.1 21.7 10.6 21.5 10.1 21.2L7.6 22.4L5.6 20.4L6.8 17.9C6.5 17.4 6.3 16.9 6.1 16.4L3.5 15.9V12.1L6.1 11.6C6.3 11.1 6.5 10.6 6.8 10.1L5.6 7.6L7.6 5.6L10.1 6.8C10.6 6.5 11.1 6.3 11.6 6.1L12.1 3.5Z"
    stroke="currentColor"
    stroke-width="2"
    stroke-linejoin="round"
  />
  <circle
    cx="14"
    cy="14"
    r="3.5"
    stroke="currentColor"
    stroke-width="2"
  />
</svg>