<svg width="64" height="64" viewBox="0 0 64 64" fill="none" xmlns="http://www.w3.org/2000/svg">
  <g transform="translate(5 5) scale(0.84)">
    <path
      d="M26 6H38V13.5C40.2 14.2 42.2 15.1 44 16.4L49.3 11.1L57.9 19.7L52.6 25C53.8 26.8 54.8 28.8 55.5 31H63V43H55.5C54.8 45.2 53.9 47.2 52.6 49L57.9 54.3L49.3 62.9L44 57.6C42.2 58.8 40.2 59.8 38 60.5V68H26V60.5C23.8 59.8 21.8 58.9 20 57.6L14.7 62.9L6.1 54.3L11.4 49C10.2 47.2 9.2 45.2 8.5 43H1V31H8.5C9.2 28.8 10.1 26.8 11.4 25L6.1 19.7L14.7 11.1L20 16.4C21.8 15.2 23.8 14.2 26 13.5V6Z"
      stroke="#000000"
      stroke-width="4"
      stroke-linejoin="round"
    />
    <circle
      cx="32"
      cy="37"
      r="9"
      stroke="#000000"
      stroke-width="4"
    />
  </g>
</svg>
