<svg
  width="256"
  height="256"
  viewBox="0 0 256 256"
  xmlns="http://www.w3.org/2000/svg"
>
  <circle cx="128" cy="128" r="128" fill="#FFE4EC" />
  <g>
    <ellipse
      cx="82"
      cy="88"
      rx="18"
      ry="24"
      fill="#FF7FA8"
      transform="rotate(-20 82 88)"
    />
    <ellipse cx="118" cy="68" rx="20" ry="27" fill="#FF7FA8" />
    <ellipse cx="158" cy="68" rx="20" ry="27" fill="#FF7FA8" />
    <ellipse
      cx="194"
      cy="88"
      rx="18"
      ry="24"
      fill="#FF7FA8"
      transform="rotate(20 194 88)"
    />
    <path
      d="M128 108C175 108 205 140 205 176C205 205 182 220 156 207C144 201 112 201 100 207C74 220 51 205 51 176C51 140 81 108 128 108Z"
      fill="#FF7FA8"
    />
    <ellipse cx="105" cy="145" rx="20" ry="12" fill="#FFC0D4" opacity="0.8" />
  </g>
</svg>
